<?xml version="1.0" encoding="utf-8"?>
<!-- Generator: Adobe Illustrator 18.1.1, SVG Export Plug-In . SVG Version: 6.00 Build 0)  -->
<!DOCTYPE svg PUBLIC "-//W3C//DTD SVG 1.1//EN" "http://www.w3.org/Graphics/SVG/1.1/DTD/svg11.dtd">
<svg version="1.1" id="Layer_1" xmlns="http://www.w3.org/2000/svg" xmlns:xlink="http://www.w3.org/1999/xlink" x="0px" y="0px"
	 viewBox="36 196 88 96" enable-background="new 36 196 88 96" xml:space="preserve">
<path display="none" d="M113.5,225.3c-2.6,1-5.2,1.9-8.1,2.3c2.9-1.6,5.2-4.5,6.1-7.7c-2.6,1.6-5.5,2.6-8.7,3.2
	c-2.6-2.6-6.1-4.2-10-4.2c-7.4,0-13.9,6.1-13.9,13.9c0,1,0,2.3,0.3,3.2c-11.3-0.6-21.6-6.1-28.3-14.5c-1.3,1.9-1.9,4.5-1.9,6.8
	c0,4.8,2.6,9,6.1,11.6c-2.3,0-4.5-0.6-6.1-1.6c0,0,0,0,0,0.3c0,6.8,4.8,12.2,11,13.5c-1.3,0.3-2.3,0.3-3.5,0.3c-1,0-1.6,0-2.6-0.3
	c1.6,5.5,6.8,9.3,12.9,9.7c-4.8,3.5-10.6,5.8-17.1,5.8c-1,0-2.3,0-3.2-0.3c6.1,3.9,13.2,6.1,20.9,6.1c25.4,0,39-20.9,39-39
	c0-0.6,0-1.3,0-1.9C109.3,230.4,111.6,228.1,113.5,225.3z"/>
<path display="none" fill-rule="evenodd" clip-rule="evenodd" d="M84.5,275.5H72.9v-27.4h-7.7v-10.6h7.8v-10.2
	c0-5.6,4.4-10.8,11.6-10.8h10.1v10.2h-6.9c-3.1,0-3.2,0.4-3.2,3l0,7.8h10.1l-1.1,10.6h-9.1V275.5L84.5,275.5L84.5,275.5z"/>
<g display="none">
	<path display="inline" d="M117.6,228.6c-1.5-5.9-4.2-8.2-9.3-9c-2.9-0.4-17-1-28.2-1l0.1,0c-11.2,0-25.3,0.6-28.2,1
		c-5.1,0.8-7.9,3.1-9.3,9c-0.5,2-1.2,12.9-1.2,17v0.9c0,4.2,0.7,15,1.2,17c1.5,5.9,4.2,8.2,9.3,9c2.9,0.4,17,1,28.2,1l-0.1,0
		c11.2,0,25.3-0.6,28.2-1c5.1-0.8,7.9-3.1,9.3-9c0.5-2,1.2-12.9,1.2-17v-0.9C118.7,241.4,118,230.5,117.6,228.6z M72,256.9v-22
		l20.6,10.7L72,256.9z"/>
</g>
<g>
	<path d="M53.4,254.8c0-5.8,0-11.7,0-17.5c0-0.2,0.1-0.3,0.1-0.5c0.1-2.1,0.2-4.1,0.7-6.1c1.1-4.5,3.8-7.8,8.1-9.7
		c2.3-1,4.8-1.3,7.3-1.4c0.6,0,1.1-0.1,1.7-0.1c5.8,0,11.7,0,17.5,0c0.2,0,0.3,0.1,0.5,0.1c2.1,0.1,4.1,0.2,6.1,0.7
		c4.5,1.1,7.8,3.8,9.7,8.1c1,2.3,1.3,4.8,1.4,7.3c0,0.6,0.1,1.1,0.1,1.7c0,5.8,0,11.7,0,17.5c0,0.2-0.1,0.3-0.1,0.5
		c-0.1,2.1-0.2,4.1-0.7,6.1c-1.1,4.5-3.8,7.8-8.1,9.7c-2.3,1-4.8,1.3-7.3,1.4c-0.6,0-1.1,0.1-1.7,0.1c-5.8,0-11.7,0-17.5,0
		c-0.2,0-0.3-0.1-0.5-0.1c-2.1-0.1-4.1-0.2-6.1-0.7c-4.5-1.1-7.8-3.8-9.7-8.1c-1-2.3-1.3-4.8-1.4-7.3
		C53.5,255.9,53.5,255.3,53.4,254.8z M101.8,246C101.8,246,101.8,246,101.8,246c-0.1-2.2,0-4.4-0.1-6.6c-0.1-2.1-0.1-4.2-0.3-6.3
		c-0.2-2-0.9-3.8-2.2-5.4c-1.9-2.2-4.4-3.1-7.1-3.2c-3.1-0.2-6.2-0.2-9.4-0.3c-3.1,0-6.2,0-9.3,0c-2.1,0-4.2,0.1-6.3,0.3
		c-2,0.2-3.8,0.9-5.4,2.2c-2.2,1.9-3.1,4.4-3.2,7.1c-0.2,3.1-0.2,6.2-0.3,9.4c0,3.1,0,6.2,0,9.3c0,2.1,0.1,4.2,0.3,6.3
		c0.2,2,0.9,3.8,2.2,5.4c1.9,2.2,4.4,3.1,7.1,3.2c3.1,0.2,6.2,0.2,9.4,0.3c3.1,0,6.2,0,9.3,0c2.3-0.1,4.6-0.1,6.9-0.5
		c3.9-0.6,6.5-2.8,7.5-6.7c0.3-1.2,0.5-2.6,0.6-3.8C101.7,253.2,101.8,249.6,101.8,246z"/>
	<path d="M93.7,246c0,7.6-6.1,13.7-13.7,13.6c-7.5,0-13.6-6.1-13.6-13.7c0-7.6,6.1-13.7,13.7-13.6C87.6,232.4,93.7,238.5,93.7,246z
		 M80,254.9c4.8,0,8.8-4,8.9-8.7c0-4.9-3.9-8.9-8.8-8.9c-4.9,0-8.9,3.9-8.9,8.8C71.2,250.9,75.1,254.9,80,254.9z"/>
	<path d="M94.2,228.6c1.8,0,3.2,1.4,3.2,3.2c0,1.8-1.4,3.2-3.2,3.2c-1.8,0-3.2-1.5-3.2-3.2C91,230.1,92.4,228.6,94.2,228.6z"/>
</g>
</svg>
