<?xml version="1.0" encoding="utf-8"?>
<!-- Generator: Adobe Illustrator 18.1.1, SVG Export Plug-In . SVG Version: 6.00 Build 0)  -->
<!DOCTYPE svg PUBLIC "-//W3C//DTD SVG 1.1//EN" "http://www.w3.org/Graphics/SVG/1.1/DTD/svg11.dtd">
<svg version="1.1" id="Layer_1" xmlns="http://www.w3.org/2000/svg" xmlns:xlink="http://www.w3.org/1999/xlink" x="0px" y="0px"
	 viewBox="0 0 105.3 103.4" enable-background="new 0 0 105.3 103.4" xml:space="preserve">
<g>
	<circle fill="#FFFFFF" cx="53.7" cy="51.4" r="37.5"/>
	<path d="M53.7,89.9c-21.2,0-38.5-17.3-38.5-38.5s17.3-38.5,38.5-38.5s38.5,17.3,38.5,38.5S74.9,89.9,53.7,89.9z M53.7,14.9
		c-20.1,0-36.5,16.4-36.5,36.5s16.4,36.5,36.5,36.5s36.5-16.4,36.5-36.5S73.8,14.9,53.7,14.9z"/>
</g>
<g>
	<polygon fill="#FFFFFF" points="49.1,41.2 64.2,51.4 49.1,61.6 	"/>
	<path d="M48.1,63.5V39.3L66,51.4L48.1,63.5z M50.1,43.1v16.7l12.3-8.3L50.1,43.1z"/>
</g>
</svg>
